<svg xmlns="http://www.w3.org/2000/svg" viewBox="0 0 64 64" width="64" height="64" fill="none">
  <defs>
    <linearGradient id="b1" x1="5.76" y1="5.12" x2="58.24" y2="58.88" gradientUnits="userSpaceOnUse">
      <stop offset="0%" stop-color="#3A3A38"></stop>
      <stop offset="42%" stop-color="#6E6E6C"></stop>
      <stop offset="100%" stop-color="#3A3A38"></stop>
    </linearGradient>
    <linearGradient id="b2" x1="16.64" y1="58.88" x2="47.36" y2="5.12" gradientUnits="userSpaceOnUse">
      <stop offset="0%" stop-color="#343432"></stop>
      <stop offset="48%" stop-color="#666664"></stop>
      <stop offset="100%" stop-color="#343432"></stop>
    </linearGradient>
    <linearGradient id="b3" x1="3.2" y1="32" x2="60.8" y2="32" gradientUnits="userSpaceOnUse">
      <stop offset="0%" stop-color="#2E2E2C"></stop>
      <stop offset="50%" stop-color="#606060"></stop>
      <stop offset="100%" stop-color="#2E2E2C"></stop>
    </linearGradient>
    <linearGradient id="hx" x1="23.68" y1="19.84" x2="40.32" y2="44.16" gradientUnits="userSpaceOnUse">
      <stop offset="0%" stop-color="#6A6A68"></stop>
      <stop offset="42%" stop-color="#3C3C3A"></stop>
      <stop offset="100%" stop-color="#1E1E1C"></stop>
    </linearGradient>
    <radialGradient id="dt" cx="36%" cy="30%" r="68%">
      <stop offset="0%" stop-color="#F58040"></stop>
      <stop offset="50%" stop-color="#C84C14"></stop>
      <stop offset="100%" stop-color="#7C2806"></stop>
    </radialGradient>
  </defs>
  <g transform="translate(32,32)">
    <path transform="rotate(240)" d="M -19.52 6.08 C -28.8 -4.8 -16 -28.8 19.52 -6.08 C 17.6 1.6 -16 16 -19.52 6.08 Z" fill="url(#b3)" stroke="#060604" stroke-width="0.48"></path>
    <path transform="rotate(120)" d="M -19.52 6.08 C -28.8 -4.8 -16 -28.8 19.52 -6.08 C 17.6 1.6 -16 16 -19.52 6.08 Z" fill="url(#b2)" stroke="#060604" stroke-width="0.48"></path>
    <path transform="rotate(0)" d="M -19.52 6.08 C -28.8 -4.8 -16 -28.8 19.52 -6.08 C 17.6 1.6 -16 16 -19.52 6.08 Z" fill="url(#b1)" stroke="#060604" stroke-width="0.48"></path>
    <polygon points="8.32,0 4.16,-7.2 -4.16,-7.2 -8.32,0 -4.16,7.2 4.16,7.2" fill="url(#hx)" stroke="#060604" stroke-width="0.64"></polygon>
    <polygon points="5.6,0 2.8,-4.85 -2.8,-4.85 -5.6,0 -2.8,4.85 2.8,4.85" fill="none" stroke="#585856" stroke-width="0.5"></polygon>
    <circle cx="0" cy="0" r="3.68" fill="url(#dt)"></circle>
  </g>
</svg>
