<svg xmlns="http://www.w3.org/2000/svg" viewBox="0 0 512 512" width="512" height="512" fill="none">
  <defs>
    <linearGradient id="bg" x1="64" y1="56" x2="456" y2="464" gradientUnits="userSpaceOnUse">
      <stop offset="0%" stop-color="#1E1E1C"></stop>
      <stop offset="55%" stop-color="#2E2E2C"></stop>
      <stop offset="100%" stop-color="#111110"></stop>
    </linearGradient>
    <linearGradient id="b1" x1="118.8" y1="109.6" x2="393.2" y2="390.4" gradientUnits="userSpaceOnUse">
      <stop offset="0%" stop-color="#3A3A38"></stop>
      <stop offset="42%" stop-color="#6E6E6C"></stop>
      <stop offset="100%" stop-color="#3A3A38"></stop>
    </linearGradient>
    <linearGradient id="b2" x1="176" y1="390.4" x2="336" y2="109.6" gradientUnits="userSpaceOnUse">
      <stop offset="0%" stop-color="#343432"></stop>
      <stop offset="48%" stop-color="#666664"></stop>
      <stop offset="100%" stop-color="#343432"></stop>
    </linearGradient>
    <linearGradient id="b3" x1="106.4" y1="256" x2="405.6" y2="256" gradientUnits="userSpaceOnUse">
      <stop offset="0%" stop-color="#2E2E2C"></stop>
      <stop offset="50%" stop-color="#606060"></stop>
      <stop offset="100%" stop-color="#2E2E2C"></stop>
    </linearGradient>
    <linearGradient id="hx" x1="214.72" y1="193.28" x2="297.28" y2="318.72" gradientUnits="userSpaceOnUse">
      <stop offset="0%" stop-color="#6A6A68"></stop>
      <stop offset="42%" stop-color="#3C3C3A"></stop>
      <stop offset="100%" stop-color="#1E1E1C"></stop>
    </linearGradient>
    <radialGradient id="dt" cx="36%" cy="30%" r="68%">
      <stop offset="0%" stop-color="#F58040"></stop>
      <stop offset="50%" stop-color="#C84C14"></stop>
      <stop offset="100%" stop-color="#7C2806"></stop>
    </radialGradient>
    <filter id="shadow" x="-20%" y="-20%" width="140%" height="140%">
      <feDropShadow dx="0" dy="8" stdDeviation="18" flood-color="#000000" flood-opacity="0.35"></feDropShadow>
    </filter>
  </defs>
  <rect x="24" y="24" width="464" height="464" rx="112" fill="url(#bg)"></rect>
  <rect x="24.5" y="24.5" width="463" height="463" rx="111.5" stroke="rgba(255,255,255,0.08)"></rect>
  <g transform="translate(256,256)" filter="url(#shadow)">
    <path transform="rotate(240)" d="M -61 19 C -90 -15 -50 -90 61 -19 C 55 5 -50 50 -61 19 Z" fill="url(#b3)" stroke="#060604" stroke-width="1.8"></path>
    <path transform="rotate(120)" d="M -61 19 C -90 -15 -50 -90 61 -19 C 55 5 -50 50 -61 19 Z" fill="url(#b2)" stroke="#060604" stroke-width="1.8"></path>
    <path transform="rotate(0)" d="M -61 19 C -90 -15 -50 -90 61 -19 C 55 5 -50 50 -61 19 Z" fill="url(#b1)" stroke="#060604" stroke-width="1.8"></path>
    <path transform="rotate(0)" d="M -61 19 C -90 -15 -50 -90 61 -19" fill="none" stroke="rgba(255,255,255,0.18)" stroke-width="1.2"></path>
    <path transform="rotate(120)" d="M -61 19 C -90 -15 -50 -90 61 -19" fill="none" stroke="rgba(255,255,255,0.13)" stroke-width="1.2"></path>
    <path transform="rotate(240)" d="M -61 19 C -90 -15 -50 -90 61 -19" fill="none" stroke="rgba(255,255,255,0.09)" stroke-width="1.2"></path>
    <polygon points="26,0 13,-22.5 -13,-22.5 -26,0 -13,22.5 13,22.5" fill="url(#hx)" stroke="#060604" stroke-width="1.4"></polygon>
    <polyline points="26,0 13,-22.5 -13,-22.5 -26,0" fill="none" stroke="rgba(255,255,255,0.20)" stroke-width="1.1"></polyline>
    <polyline points="-26,0 -13,22.5 13,22.5 26,0" fill="none" stroke="rgba(0,0,0,0.45)" stroke-width="1.1"></polyline>
    <polygon points="17.5,0 8.75,-15.15 -8.75,-15.15 -17.5,0 -8.75,15.15 8.75,15.15" fill="none" stroke="#585856" stroke-width="0.9"></polygon>
    <circle cx="0" cy="0" r="11.5" fill="url(#dt)"></circle>
    <ellipse cx="-3" cy="-3.5" rx="4.2" ry="2.6" fill="rgba(255,255,255,0.26)"></ellipse>
  </g>
</svg>
